<?xml version="1.0" standalone="no"?><!DOCTYPE svg PUBLIC "-//W3C//DTD SVG 1.1//EN" "http://www.w3.org/Graphics/SVG/1.1/DTD/svg11.dtd"><svg width="40" height="40" viewBox="0 0 200 200" version="1.1" xmlns="http://www.w3.org/2000/svg" xmlns:xlink="http://www.w3.org/1999/xlink"><defs><style type="text/css"><![CDATA[
@font-face { font-family: ifont; src: url(http://at.alicdn.com/t/font_1442373896_4754455.eot?#iefix) format(embedded-opentype), url(http://at.alicdn.com/t/font_1442373896_4754455.woff) format(woff), url(http://at.alicdn.com/t/font_1442373896_4754455.ttf) format(truetype), url(http://at.alicdn.com/t/font_1442373896_4754455.svg#ifont) format(svg); }

]]></style></defs><g class="transform-group"><g transform="scale(0.1953125, 0.1953125)"><path d="M119.200058 375.999884l785.598642 0c65.851459 0 119.2013 53.403246 119.2013 119.2013 0 65.798055-53.348599 119.200058-119.2013 119.200058L119.200058 614.401242C53.348599 614.4 0 560.997996 0 495.201184 0 429.403129 53.348599 375.999884 119.200058 375.999884zM528.798816 0c65.851459 0 119.2013 53.403246 119.2013 119.200058l0 785.598642c0 65.798055-53.348599 119.2013-119.2013 119.2013-65.851459 0-119.198816-53.402004-119.198816-119.2013L409.6 119.200058C409.6 53.403246 462.947357 0 528.798816 0z" fill="#b5b5b5"></path></g></g></svg>